<?xml version="1.0" encoding="UTF-8" standalone="no"?>
<!DOCTYPE svg PUBLIC "-//W3C//DTD SVG 1.1//EN" "http://www.w3.org/Graphics/SVG/1.1/DTD/svg11.dtd">
<svg width="100%" height="100%" viewBox="0 0 24 24" version="1.1" xmlns="http://www.w3.org/2000/svg" xmlns:xlink="http://www.w3.org/1999/xlink" xml:space="preserve" xmlns:serif="http://www.serif.com/" style="fill-rule:evenodd;clip-rule:evenodd;stroke-linejoin:round;stroke-miterlimit:1.41421;">
    <path d="M12,2C17.514,2 22,6.486 22,12C22,17.514 17.514,22 12,22C6.486,22 2,17.514 2,12C2,6.486 6.486,2 12,2ZM12,0C5.373,0 0,5.373 0,12C0,18.627 5.373,24 12,24C18.627,24 24,18.627 24,12C24,5.373 18.627,0 12,0ZM10,10L8,10L8,12L10,12L10,18L13,18L13,12L14.82,12L15,10L13,10L13,9.167C13,8.689 13.096,8.5 13.558,8.5L15,8.5L15,6L12.596,6C10.798,6 10,6.792 10,8.308L10,10Z" style="fill:white;fill-rule:nonzero;"/>
</svg>
